<svg version="1.1" viewBox="0.0 0.0 230.36220472440945 602.9658792650919" fill="none" stroke="none" stroke-linecap="square" stroke-miterlimit="10" xmlns:xlink="http://www.w3.org/1999/xlink" xmlns="http://www.w3.org/2000/svg"><clipPath id="p.0"><path d="m0 0l230.3622 0l0 602.9659l-230.3622 0l0 -602.9659z" clip-rule="nonzero"/></clipPath><path fill="#000000" fill-opacity="0.0" d="m0 0l230.3622 0l0 602.9659l-230.3622 0z" fill-rule="evenodd"/><path class="scroll-arrow-svg" fill="#cfe2f3" d="m171.94423 8.760929l0 0c2.7968445 -4.8392506 8.986725 -6.494239 13.82547 -3.6965199l35.04428 20.262264l0 0c2.323639 1.3435116 4.018585 3.5551586 4.7119293 6.148403c0.6933594 2.5932446 0.32833862 5.3556614 -1.0147552 7.679552l-166.87958 288.74323c-2.796852 4.839264 -8.986729 6.4942627 -13.825478 3.6965332l-35.04427 -20.262268c-4.838749 -2.7977295 -6.494034 -8.9887085 -3.6971817 -13.827942z" fill-rule="evenodd"/><path class="scroll-arrow-svg" fill="#cfe2f3" d="m5.076866 305.73517l0 0c-2.7957528 -4.838196 -1.1395772 -11.026001 3.699172 -13.820831l35.04427 -20.241241l0 0c2.3236465 -1.3421326 5.0854607 -1.7063293 7.677868 -1.0124512c2.5924034 0.69384766 4.803051 2.3889465 6.1456184 4.712311l166.85205 288.74704c2.795761 4.838196 1.1395874 11.026001 -3.6991577 13.820801l-35.04428 20.241272c-4.838745 2.7947998 -11.027725 1.1383057 -13.823486 -3.6998901z" fill-rule="evenodd"/></svg>